<svg xmlns="http://www.w3.org/2000/svg" viewBox="0 0 600 220" width="100%" height="100%">
  <!-- Concentrix Brand Logo (SVG Vector Representation) -->
  <defs>
    <!-- Gradients or shadow filters can be added here if needed -->
  </defs>
  
  <g transform="translate(10, 10)">
    <!-- Spiral Swooshes Graphic -->
    <g transform="translate(50, 0)">
      <!-- Outer Dark Blue Swoosh -->
      <path d="M 155,103 C 122,103 40,78 61,38 C 76,9 159,20 193,51 C 215,70 215,86 193,101 C 172,112 121,80 121,65 C 121,55 160,51 180,63 C 196,72 191,84 170,95 C 150,105 100,90 90,65 C 80,40 130,32 170,45 C 209,58 223,83 195,100 C 183,107 169,103 155,103 Z" fill="#003D5B" />
      
      <!-- Teal Swoosh -->
      <path d="M 130,113 C 105,113 42,94 54,64 C 63,41 123,49 148,70 C 164,83 164,95 148,105 C 133,114 96,93 96,82 C 96,75 125,72 139,80 C 151,87 148,95 133,103 C 119,110 82,100 75,82 C 68,64 105,58 132,67 C 159,76 168,93 148,105 C 143,109 136,113 130,113 Z" fill="#25E2CC" />
      
      <!-- Orange Swoosh -->
      <path d="M 125,123 C 105,123 58,109 67,86 C 74,68 118,74 136,89 C 148,99 148,108 136,116 C 124,123 96,108 96,100 C 96,94 117,92 127,98 C 136,103 133,109 122,115 C 111,120 84,113 79,100 C 74,87 101,83 121,89 C 140,95 147,107 131,116 C 129,119 127,123 125,123 Z" fill="#E86E25" />
      
      <!-- Yellow Swoosh -->
      <path d="M 125,133 C 111,133 78,124 83,108 C 87,95 116,99 128,109 C 136,116 136,122 128,128 C 120,133 100,123 100,117 C 100,113 114,111 121,115 C 127,118 125,122 118,126 C 111,129 93,124 90,115 C 87,106 105,103 118,107 C 131,111 135,119 124,126 C 124,128 125,133 125,133 Z" fill="#C4D600" />
    </g>
    
    <!-- Concentrix Typography -->
    <!-- Stylized font styling using system-available fonts and fallback -->
    <text x="280" y="105" font-family="'Outfit', 'Plus Jakarta Sans', 'Segoe UI', sans-serif" font-weight="900" font-size="64" fill="#003D5B" letter-spacing="2" text-anchor="start">CONCENTRIX</text>
  </g>
</svg>
